<svg width="468" height="698" viewBox="0 0 468 698" fill="none" xmlns="http://www.w3.org/2000/svg">
<path d="M312 48.3721C312 21.6569 333.657 0 360.372 0H419.628C446.343 0 468 21.6569 468 48.3721V337.395C468 364.111 446.343 385.767 419.628 385.767H360.372C333.657 385.767 312 364.111 312 337.395V48.3721Z" fill="#667BC6"/>
<path fill-rule="evenodd" clip-rule="evenodd" d="M48.3721 0C21.6569 0 0 21.6569 0 48.3721V590.139V649.395C0 676.11 21.6569 697.767 48.3721 697.767H107.628H419.628C446.343 697.767 468 676.11 468 649.395V590.139C468 563.424 446.343 541.767 419.628 541.767H156V48.3721C156 21.6569 134.343 0 107.628 0H48.3721Z" fill="#667BC6"/>
<path fill-rule="evenodd" clip-rule="evenodd" d="M218.884 0C205.526 0 194.698 10.8285 194.698 24.186V449.86V478.884C194.698 492.241 205.526 503.07 218.884 503.07H247.907H443.814C457.172 503.07 468 492.241 468 478.884V449.86C468 436.503 457.172 425.674 443.814 425.674H272.093V24.186C272.093 10.8285 261.265 0 247.907 0H218.884Z" fill="#667BC6"/>
</svg>
